# xmcd
#
# Track frame offsets:
#	150
#	6846
#	12765
#	21661
#	32882
#	41671
#	51951
#	63666
#	75558
#	92915
#	100019
#	111212
#	117406
#	129758
#	145699
#	158365
#	166238
#	178046
#	189440
#	199779
#	212647
#	222104
#	230656
#	239857
#	254299
#
# Disc length: 3557 seconds
#
# Revision: 0
# Processed by: cddbd v1.5.2PL0 Copyright (c) Steve Scherf et al.
# Submitted via: EZCDAudioConverter 1.0.6.1
#
DISCID=5a0de319
DTITLE=Doug Kershaw - Anthology Rare Masters 1958 to 1969
DYEAR=2016
DGENRE=country
TTITLE0=Doug Kershaw - Big mighty man
TTITLE1=Doug Kershaw - Didn't you hear me
TTITLE2=Doug and Rusty Kershaw - Fais do do
TTITLE3=Doug and Rusty Kershaw - Two out of three
TTITLE4=Doug and Rusty Kershaw - Mary Lou
TTITLE5=Doug Kershaw - Among other things 
TTITLE6=Doug Kershaw - Do me right now 
TTITLE7=Doug Kershaw - A victim of love gone wrong
TTITLE8=Doug Kershaw - Hardly anymore
TTITLE9=Doug Kershaw - Give me some girl
TTITLE10=Doug Kershaw - Am I lonely tonight
TTITLE11=Doug Kershaw - Except
TTITLE12=Doug and Rusty Kershaw - Shake hands and come out crying
TTITLE13=Doug and Rusty Kershaw - Pride versus love
TTITLE14=Doug and Rusty Kershaw - I can't love that way 
TTITLE15=Doug and Rusty Kershaw - It takes all day to get over night
TTITLE16=Doug Kershaw - I'm just a man called Sam
TTITLE17=Doug Kershaw - Before I start over 
TTITLE18=Doug Kershaw - Baby's gone 
TTITLE19=Doug Kershaw - Ain't going to get me down
TTITLE20=Doug Kershaw - Contract for misery
TTITLE21=Doug Kershaw - Around and around
TTITLE22=Doug Kershaw - Hollywood to Memphis
TTITLE23=Doug Kershaw - Future of love
TTITLE24=Doug Kershaw - I can't see myself
EXTD=
EXTT0=
EXTT1=
EXTT2=
EXTT3=
EXTT4=
EXTT5=
EXTT6=
EXTT7=
EXTT8=
EXTT9=
EXTT10=
EXTT11=
EXTT12=
EXTT13=
EXTT14=
EXTT15=
EXTT16=
EXTT17=
EXTT18=
EXTT19=
EXTT20=
EXTT21=
EXTT22=
EXTT23=
EXTT24=
PLAYORDER=
